<svg xmlns="http://www.w3.org/2000/svg" viewBox="0 0 32 32" width="32" height="32">
  <!-- White background circle -->
  <circle cx="16" cy="16" r="15" fill="white" />
  
  <!-- Orange puzzle pieces -->
  <g fill="#ff6b35">
    <!-- Left puzzle piece -->
    <path d="M8 12h5v2.5a1.5 1.5 0 003 0V12h2v3h-2.5a1.5 1.5 0 000 3H18v3h-5v-2.5a1.5 1.5 0 00-3 0V21H8v-9z" />
    
    <!-- Right puzzle piece (connected) -->
    <path d="M18 12h2v2.5a1.5 1.5 0 003 0V12h2v9h-5v-2.5a1.5 1.5 0 00-3 0V21h-2v-3h2.5a1.5 1.5 0 000-3H18v-3z" opacity="0.85" />
  </g>
  
  <!-- Border for better visibility -->
  <circle cx="16" cy="16" r="14.5" fill="none" stroke="#e0e0e0" stroke-width="0.5" />
</svg>